<?xml version="1.0" encoding="UTF-8" standalone="no"?>
<!DOCTYPE svg PUBLIC "-//W3C//DTD SVG 1.1//EN"
 "http://www.w3.org/Graphics/SVG/1.1/DTD/svg11.dtd">
<!-- Generated by graphviz version 13.1.0 (20250701.0955)
 -->
<!-- Title: mlx90614_advance_init Pages: 1 -->
<svg width="299pt" height="1046pt"
 viewBox="0.00 0.00 299.00 1046.00" xmlns="http://www.w3.org/2000/svg" xmlns:xlink="http://www.w3.org/1999/xlink">
<g id="graph0" class="graph" transform="scale(1 1) rotate(0) translate(4 1042)">
<title>mlx90614_advance_init</title>
<!-- Node1 -->
<g id="Node000001" class="node">
<title>Node1</title>
<g id="a_Node000001"><a xlink:title="advance example init">
<polygon fill="#999999" stroke="#666666" points="118,-484 0,-484 0,-464 118,-464 118,-484"/>
<text xml:space="preserve" text-anchor="middle" x="59" y="-470.5" font-family="Helvetica,sans-Serif" font-size="10.00">mlx90614_advance_init</text>
</a>
</g>
</g>
<!-- Node2 -->
<g id="Node000002" class="node">
<title>Node2</title>
<g id="a_Node000002"><a xlink:href="group__mlx90614__basic__driver.html#gace5c4919a7c0dd1b200b86b924fbc518" target="_top" xlink:title="close the chip">
<polygon fill="white" stroke="#666666" points="265.62,-1038 179.12,-1038 179.12,-1018 265.62,-1018 265.62,-1038"/>
<text xml:space="preserve" text-anchor="middle" x="222.38" y="-1024.5" font-family="Helvetica,sans-Serif" font-size="10.00">mlx90614_deinit</text>
</a>
</g>
</g>
<!-- Node1&#45;&gt;Node2 -->
<g id="edge1_Node000001_Node000002" class="edge">
<title>Node1&#45;&gt;Node2</title>
<g id="a_edge1_Node000001_Node000002"><a xlink:title=" ">
<path fill="none" stroke="#63b8ff" d="M60.36,-484.21C62.89,-551.17 80.33,-927.49 154,-1009 157.97,-1013.4 162.88,-1016.81 168.21,-1019.45"/>
<polygon fill="#63b8ff" stroke="#63b8ff" points="166.87,-1022.68 177.46,-1023.08 169.43,-1016.17 166.87,-1022.68"/>
</a>
</g>
</g>
<!-- Node3 -->
<g id="Node000003" class="node">
<title>Node3</title>
<g id="a_Node000003"><a xlink:href="group__mlx90614__advance__driver.html#gae798b2bd8a4fd51e849f4ffff05a5cab" target="_top" xlink:title="convert the emissivity correction coefficient to the register raw data">
<polygon fill="white" stroke="#666666" points="279.12,-1000 165.62,-1000 165.62,-956 279.12,-956 279.12,-1000"/>
<text xml:space="preserve" text-anchor="start" x="173.62" y="-986.5" font-family="Helvetica,sans-Serif" font-size="10.00">mlx90614_emissivity</text>
<text xml:space="preserve" text-anchor="start" x="173.62" y="-974.5" font-family="Helvetica,sans-Serif" font-size="10.00">_correction_coefficient</text>
<text xml:space="preserve" text-anchor="middle" x="222.38" y="-962.5" font-family="Helvetica,sans-Serif" font-size="10.00">_convert_to_register</text>
</a>
</g>
</g>
<!-- Node1&#45;&gt;Node3 -->
<g id="edge2_Node000001_Node000003" class="edge">
<title>Node1&#45;&gt;Node3</title>
<g id="a_edge2_Node000001_Node000003"><a xlink:title=" ">
<path fill="none" stroke="#63b8ff" d="M60.8,-484.48C65.77,-547.04 94.11,-871.08 154,-947 154.9,-948.14 155.85,-949.23 156.84,-950.29"/>
<polygon fill="#63b8ff" stroke="#63b8ff" points="154.27,-952.7 164.1,-956.67 158.9,-947.44 154.27,-952.7"/>
</a>
</g>
</g>
<!-- Node4 -->
<g id="Node000004" class="node">
<title>Node4</title>
<g id="a_Node000004"><a xlink:href="group__mlx90614__advance__driver.html#ga9182bfd300ae883b1be3bf8dfa83f8b5" target="_top" xlink:title="exit from sleep mode">
<polygon fill="white" stroke="#666666" points="290.75,-938 154,-938 154,-918 290.75,-918 290.75,-938"/>
<text xml:space="preserve" text-anchor="middle" x="222.38" y="-924.5" font-family="Helvetica,sans-Serif" font-size="10.00">mlx90614_exit_sleep_mode</text>
</a>
</g>
</g>
<!-- Node1&#45;&gt;Node4 -->
<g id="edge3_Node000001_Node000004" class="edge">
<title>Node1&#45;&gt;Node4</title>
<g id="a_edge3_Node000001_Node000004"><a xlink:title=" ">
<path fill="none" stroke="#63b8ff" d="M60.8,-484.16C65.65,-543.42 93.02,-844.11 154,-909 154.71,-909.76 155.45,-910.48 156.21,-911.18"/>
<polygon fill="#63b8ff" stroke="#63b8ff" points="153.81,-913.77 163.98,-916.75 157.89,-908.08 153.81,-913.77"/>
</a>
</g>
</g>
<!-- Node5 -->
<g id="Node000005" class="node">
<title>Node5</title>
<g id="a_Node000005"><a xlink:href="group__mlx90614__basic__driver.html#ga92df0bcb60fde45d9c9bc6fbe54388ff" target="_top" xlink:title="initialize the chip">
<polygon fill="white" stroke="#666666" points="260.38,-900 184.38,-900 184.38,-880 260.38,-880 260.38,-900"/>
<text xml:space="preserve" text-anchor="middle" x="222.38" y="-886.5" font-family="Helvetica,sans-Serif" font-size="10.00">mlx90614_init</text>
</a>
</g>
</g>
<!-- Node1&#45;&gt;Node5 -->
<g id="edge4_Node000001_Node000005" class="edge">
<title>Node1&#45;&gt;Node5</title>
<g id="a_edge4_Node000001_Node000005"><a xlink:title=" ">
<path fill="none" stroke="#63b8ff" d="M61.04,-484.36C66.95,-540.98 97.88,-812.45 154,-871 159.31,-876.54 166.1,-880.5 173.32,-883.33"/>
<polygon fill="#63b8ff" stroke="#63b8ff" points="172.04,-886.6 182.63,-886.26 174.14,-879.92 172.04,-886.6"/>
</a>
</g>
</g>
<!-- Node6 -->
<g id="Node000006" class="node">
<title>Node6</title>
<g id="a_Node000006"><a xlink:href="group__mlx90614__interface__driver.html#gae131079bb0527366d0c6fa96b68e8a26" target="_top" xlink:title="interface print format data">
<polygon fill="white" stroke="#666666" points="272.75,-862 172,-862 172,-830 272.75,-830 272.75,-862"/>
<text xml:space="preserve" text-anchor="start" x="180" y="-848.5" font-family="Helvetica,sans-Serif" font-size="10.00">mlx90614_interface</text>
<text xml:space="preserve" text-anchor="middle" x="222.38" y="-836.5" font-family="Helvetica,sans-Serif" font-size="10.00">_debug_print</text>
</a>
</g>
</g>
<!-- Node1&#45;&gt;Node6 -->
<g id="edge5_Node000001_Node000006" class="edge">
<title>Node1&#45;&gt;Node6</title>
<g id="a_edge5_Node000001_Node000006"><a xlink:title=" ">
<path fill="none" stroke="#63b8ff" d="M59.61,-484.38C58.47,-530.36 59.94,-717.99 154,-821 156.36,-823.59 159.02,-825.91 161.88,-827.99"/>
<polygon fill="#63b8ff" stroke="#63b8ff" points="159.9,-830.89 170.27,-833.07 163.53,-824.9 159.9,-830.89"/>
</a>
</g>
</g>
<!-- Node7 -->
<g id="Node000007" class="node">
<title>Node7</title>
<g id="a_Node000007"><a xlink:href="group__mlx90614__interface__driver.html#ga63792ad5bfa17f8c75d671708f6eb3f8" target="_top" xlink:title="interface delay ms">
<polygon fill="white" stroke="#666666" points="272.75,-812 172,-812 172,-780 272.75,-780 272.75,-812"/>
<text xml:space="preserve" text-anchor="start" x="180" y="-798.5" font-family="Helvetica,sans-Serif" font-size="10.00">mlx90614_interface</text>
<text xml:space="preserve" text-anchor="middle" x="222.38" y="-786.5" font-family="Helvetica,sans-Serif" font-size="10.00">_delay_ms</text>
</a>
</g>
</g>
<!-- Node1&#45;&gt;Node7 -->
<g id="edge6_Node000001_Node000007" class="edge">
<title>Node1&#45;&gt;Node7</title>
<g id="a_edge6_Node000001_Node000007"><a xlink:title=" ">
<path fill="none" stroke="#63b8ff" d="M60.17,-484.28C61.41,-525.99 71.57,-684.45 154,-771 156.42,-773.54 159.12,-775.82 162,-777.87"/>
<polygon fill="#63b8ff" stroke="#63b8ff" points="160.08,-780.8 170.46,-782.9 163.65,-774.78 160.08,-780.8"/>
</a>
</g>
</g>
<!-- Node8 -->
<g id="Node000008" class="node">
<title>Node8</title>
<g id="a_Node000008"><a xlink:href="group__mlx90614__interface__driver.html#ga685fd159ec3fd8ae6754a826a22aa924" target="_top" xlink:title="interface iic bus deinit">
<polygon fill="white" stroke="#666666" points="272.75,-762 172,-762 172,-730 272.75,-730 272.75,-762"/>
<text xml:space="preserve" text-anchor="start" x="180" y="-748.5" font-family="Helvetica,sans-Serif" font-size="10.00">mlx90614_interface</text>
<text xml:space="preserve" text-anchor="middle" x="222.38" y="-736.5" font-family="Helvetica,sans-Serif" font-size="10.00">_iic_deinit</text>
</a>
</g>
</g>
<!-- Node1&#45;&gt;Node8 -->
<g id="edge7_Node000001_Node000008" class="edge">
<title>Node1&#45;&gt;Node8</title>
<g id="a_edge7_Node000001_Node000008"><a xlink:title=" ">
<path fill="none" stroke="#63b8ff" d="M60.93,-484.31C64.83,-521.57 83.14,-650.73 154,-721 156.45,-723.43 159.15,-725.62 162.02,-727.6"/>
<polygon fill="#63b8ff" stroke="#63b8ff" points="159.98,-730.46 170.38,-732.48 163.51,-724.42 159.98,-730.46"/>
</a>
</g>
</g>
<!-- Node9 -->
<g id="Node000009" class="node">
<title>Node9</title>
<g id="a_Node000009"><a xlink:href="group__mlx90614__interface__driver.html#ga46e578cd72698bb2f8fb2b214f47a0f6" target="_top" xlink:title="interface iic bus init">
<polygon fill="white" stroke="#666666" points="272.75,-712 172,-712 172,-680 272.75,-680 272.75,-712"/>
<text xml:space="preserve" text-anchor="start" x="180" y="-698.5" font-family="Helvetica,sans-Serif" font-size="10.00">mlx90614_interface</text>
<text xml:space="preserve" text-anchor="middle" x="222.38" y="-686.5" font-family="Helvetica,sans-Serif" font-size="10.00">_iic_init</text>
</a>
</g>
</g>
<!-- Node1&#45;&gt;Node9 -->
<g id="edge8_Node000001_Node000009" class="edge">
<title>Node1&#45;&gt;Node9</title>
<g id="a_edge8_Node000001_Node000009"><a xlink:title=" ">
<path fill="none" stroke="#63b8ff" d="M62.02,-484.2C68.91,-516.33 94.42,-616.55 154,-671 156.42,-673.21 159.05,-675.23 161.82,-677.07"/>
<polygon fill="#63b8ff" stroke="#63b8ff" points="159.97,-680.04 170.39,-681.95 163.43,-673.96 159.97,-680.04"/>
</a>
</g>
</g>
<!-- Node10 -->
<g id="Node000010" class="node">
<title>Node10</title>
<g id="a_Node000010"><a xlink:href="group__mlx90614__interface__driver.html#gadf9d35a55bfa4ac8782e468dc22df124" target="_top" xlink:title="interface iic bus read">
<polygon fill="white" stroke="#666666" points="272.75,-662 172,-662 172,-630 272.75,-630 272.75,-662"/>
<text xml:space="preserve" text-anchor="start" x="180" y="-648.5" font-family="Helvetica,sans-Serif" font-size="10.00">mlx90614_interface</text>
<text xml:space="preserve" text-anchor="middle" x="222.38" y="-636.5" font-family="Helvetica,sans-Serif" font-size="10.00">_iic_read</text>
</a>
</g>
</g>
<!-- Node1&#45;&gt;Node10 -->
<g id="edge9_Node000001_Node000010" class="edge">
<title>Node1&#45;&gt;Node10</title>
<g id="a_edge9_Node000001_Node000010"><a xlink:title=" ">
<path fill="none" stroke="#63b8ff" d="M63.8,-484.15C74.16,-510.51 105.42,-581.83 154,-621 156.38,-622.92 158.91,-624.69 161.56,-626.34"/>
<polygon fill="#63b8ff" stroke="#63b8ff" points="159.74,-629.34 170.2,-631.04 163.09,-623.19 159.74,-629.34"/>
</a>
</g>
</g>
<!-- Node11 -->
<g id="Node000011" class="node">
<title>Node11</title>
<g id="a_Node000011"><a xlink:href="group__mlx90614__interface__driver.html#ga0de85f1b76b0641e601a5b773a138086" target="_top" xlink:title="interface iic bus write">
<polygon fill="white" stroke="#666666" points="272.75,-612 172,-612 172,-580 272.75,-580 272.75,-612"/>
<text xml:space="preserve" text-anchor="start" x="180" y="-598.5" font-family="Helvetica,sans-Serif" font-size="10.00">mlx90614_interface</text>
<text xml:space="preserve" text-anchor="middle" x="222.38" y="-586.5" font-family="Helvetica,sans-Serif" font-size="10.00">_iic_write</text>
</a>
</g>
</g>
<!-- Node1&#45;&gt;Node11 -->
<g id="edge10_Node000001_Node000011" class="edge">
<title>Node1&#45;&gt;Node11</title>
<g id="a_edge10_Node000001_Node000011"><a xlink:title=" ">
<path fill="none" stroke="#63b8ff" d="M67.39,-484.24C81.92,-503.69 116.1,-546.26 154,-571 156.38,-572.55 158.86,-574.02 161.42,-575.42"/>
<polygon fill="#63b8ff" stroke="#63b8ff" points="159.69,-578.47 170.2,-579.76 162.79,-572.19 159.69,-578.47"/>
</a>
</g>
</g>
<!-- Node12 -->
<g id="Node000012" class="node">
<title>Node12</title>
<g id="a_Node000012"><a xlink:href="group__mlx90614__interface__driver.html#gacec1e1f7236d20c7cb64eec32ed48bd0" target="_top" xlink:title="interface scl write">
<polygon fill="white" stroke="#666666" points="272.75,-562 172,-562 172,-530 272.75,-530 272.75,-562"/>
<text xml:space="preserve" text-anchor="start" x="180" y="-548.5" font-family="Helvetica,sans-Serif" font-size="10.00">mlx90614_interface</text>
<text xml:space="preserve" text-anchor="middle" x="222.38" y="-536.5" font-family="Helvetica,sans-Serif" font-size="10.00">_scl_write</text>
</a>
</g>
</g>
<!-- Node1&#45;&gt;Node12 -->
<g id="edge11_Node000001_Node000012" class="edge">
<title>Node1&#45;&gt;Node12</title>
<g id="a_edge11_Node000001_Node000012"><a xlink:title=" ">
<path fill="none" stroke="#63b8ff" d="M79.15,-484.34C97.95,-494.31 127.56,-509.52 154,-521 157.38,-522.47 160.87,-523.92 164.41,-525.36"/>
<polygon fill="#63b8ff" stroke="#63b8ff" points="163.09,-528.6 173.67,-529.02 165.66,-522.09 163.09,-528.6"/>
</a>
</g>
</g>
<!-- Node13 -->
<g id="Node000013" class="node">
<title>Node13</title>
<g id="a_Node000013"><a xlink:href="group__mlx90614__interface__driver.html#ga84b8e1826902be3f5cf963609dfd68b4" target="_top" xlink:title="interface sda write">
<polygon fill="white" stroke="#666666" points="272.75,-512 172,-512 172,-480 272.75,-480 272.75,-512"/>
<text xml:space="preserve" text-anchor="start" x="180" y="-498.5" font-family="Helvetica,sans-Serif" font-size="10.00">mlx90614_interface</text>
<text xml:space="preserve" text-anchor="middle" x="222.38" y="-486.5" font-family="Helvetica,sans-Serif" font-size="10.00">_sda_write</text>
</a>
</g>
</g>
<!-- Node1&#45;&gt;Node13 -->
<g id="edge12_Node000001_Node000013" class="edge">
<title>Node1&#45;&gt;Node13</title>
<g id="a_edge12_Node000001_Node000013"><a xlink:title=" ">
<path fill="none" stroke="#63b8ff" d="M118.26,-481.94C131.94,-483.81 146.56,-485.8 160.36,-487.68"/>
<polygon fill="#63b8ff" stroke="#63b8ff" points="159.84,-491.14 170.22,-489.03 160.79,-484.21 159.84,-491.14"/>
</a>
</g>
</g>
<!-- Node14 -->
<g id="Node000014" class="node">
<title>Node14</title>
<g id="a_Node000014"><a xlink:href="group__mlx90614__advance__driver.html#gaa708be9b3b2847e7056297bd7a21e8c2" target="_top" xlink:title="change pwm mode to smbus mode">
<polygon fill="white" stroke="#666666" points="288.5,-462 156.25,-462 156.25,-442 288.5,-442 288.5,-462"/>
<text xml:space="preserve" text-anchor="middle" x="222.38" y="-448.5" font-family="Helvetica,sans-Serif" font-size="10.00">mlx90614_pwm_to_smbus</text>
</a>
</g>
</g>
<!-- Node1&#45;&gt;Node14 -->
<g id="edge13_Node000001_Node000014" class="edge">
<title>Node1&#45;&gt;Node14</title>
<g id="a_edge13_Node000001_Node000014"><a xlink:title=" ">
<path fill="none" stroke="#63b8ff" d="M118.26,-466.06C126.83,-464.89 135.77,-463.67 144.64,-462.46"/>
<polygon fill="#63b8ff" stroke="#63b8ff" points="144.88,-465.96 154.31,-461.14 143.93,-459.03 144.88,-465.96"/>
</a>
</g>
</g>
<!-- Node15 -->
<g id="Node000015" class="node">
<title>Node15</title>
<g id="a_Node000015"><a xlink:href="group__mlx90614__basic__driver.html#gab60b78a1d3c8efe38156b57136b1a87c" target="_top" xlink:title="set the address">
<polygon fill="white" stroke="#666666" points="272.75,-424 172,-424 172,-404 272.75,-404 272.75,-424"/>
<text xml:space="preserve" text-anchor="middle" x="222.38" y="-410.5" font-family="Helvetica,sans-Serif" font-size="10.00">mlx90614_set_addr</text>
</a>
</g>
</g>
<!-- Node1&#45;&gt;Node15 -->
<g id="edge14_Node000001_Node000015" class="edge">
<title>Node1&#45;&gt;Node15</title>
<g id="a_edge14_Node000001_Node000015"><a xlink:title=" ">
<path fill="none" stroke="#63b8ff" d="M81.69,-463.53C100.53,-454.68 128.68,-442.04 154,-433 159.1,-431.18 164.46,-429.42 169.84,-427.75"/>
<polygon fill="#63b8ff" stroke="#63b8ff" points="170.8,-431.11 179.38,-424.9 168.8,-424.41 170.8,-431.11"/>
</a>
</g>
</g>
<!-- Node16 -->
<g id="Node000016" class="node">
<title>Node16</title>
<g id="a_Node000016"><a xlink:href="group__mlx90614__advance__driver.html#ga4ad1f7760ca2fae93a22217240e7ffc5" target="_top" xlink:title="set the emissivity correction coefficient">
<polygon fill="white" stroke="#666666" points="285.5,-386 159.25,-386 159.25,-354 285.5,-354 285.5,-386"/>
<text xml:space="preserve" text-anchor="start" x="167.25" y="-372.5" font-family="Helvetica,sans-Serif" font-size="10.00">mlx90614_set_emissivity</text>
<text xml:space="preserve" text-anchor="middle" x="222.38" y="-360.5" font-family="Helvetica,sans-Serif" font-size="10.00">_correction_coefficient</text>
</a>
</g>
</g>
<!-- Node1&#45;&gt;Node16 -->
<g id="edge15_Node000001_Node000016" class="edge">
<title>Node1&#45;&gt;Node16</title>
<g id="a_edge15_Node000001_Node000016"><a xlink:title=" ">
<path fill="none" stroke="#63b8ff" d="M69.82,-463.72C86,-447.26 119.92,-414.84 154,-395 156.19,-393.73 158.46,-392.5 160.77,-391.31"/>
<polygon fill="#63b8ff" stroke="#63b8ff" points="162.25,-394.48 169.81,-387.06 159.27,-388.15 162.25,-394.48"/>
</a>
</g>
</g>
<!-- Node17 -->
<g id="Node000017" class="node">
<title>Node17</title>
<g id="a_Node000017"><a xlink:href="group__mlx90614__advance__driver.html#ga3599804de143ec18abb008fc90c61983" target="_top" xlink:title="set the ir sensor fir length">
<polygon fill="white" stroke="#666666" points="283.25,-336 161.5,-336 161.5,-316 283.25,-316 283.25,-336"/>
<text xml:space="preserve" text-anchor="middle" x="222.38" y="-322.5" font-family="Helvetica,sans-Serif" font-size="10.00">mlx90614_set_fir_length</text>
</a>
</g>
</g>
<!-- Node1&#45;&gt;Node17 -->
<g id="edge16_Node000001_Node000017" class="edge">
<title>Node1&#45;&gt;Node17</title>
<g id="a_edge16_Node000001_Node000017"><a xlink:title=" ">
<path fill="none" stroke="#63b8ff" d="M64.48,-463.83C75.77,-439.42 107.83,-377.13 154,-345 155.95,-343.64 157.99,-342.38 160.1,-341.21"/>
<polygon fill="#63b8ff" stroke="#63b8ff" points="161.47,-344.44 169.03,-337.01 158.49,-338.11 161.47,-344.44"/>
</a>
</g>
</g>
<!-- Node18 -->
<g id="Node000018" class="node">
<title>Node18</title>
<g id="a_Node000018"><a xlink:href="group__mlx90614__advance__driver.html#ga0cee7827f76daff04ed5cd0671630449" target="_top" xlink:title="set the gain param">
<polygon fill="white" stroke="#666666" points="272.38,-298 172.38,-298 172.38,-278 272.38,-278 272.38,-298"/>
<text xml:space="preserve" text-anchor="middle" x="222.38" y="-284.5" font-family="Helvetica,sans-Serif" font-size="10.00">mlx90614_set_gain</text>
</a>
</g>
</g>
<!-- Node1&#45;&gt;Node18 -->
<g id="edge17_Node000001_Node000018" class="edge">
<title>Node1&#45;&gt;Node18</title>
<g id="a_edge17_Node000001_Node000018"><a xlink:title=" ">
<path fill="none" stroke="#63b8ff" d="M62.82,-463.53C71.28,-434.09 99.35,-349.99 154,-307 156.42,-305.09 159.03,-303.38 161.76,-301.83"/>
<polygon fill="#63b8ff" stroke="#63b8ff" points="163.14,-305.05 170.69,-297.61 160.15,-298.72 163.14,-305.05"/>
</a>
</g>
</g>
<!-- Node19 -->
<g id="Node000019" class="node">
<title>Node19</title>
<g id="a_Node000019"><a xlink:href="group__mlx90614__advance__driver.html#ga6ee668d99b00b53570dbf4f0e87f089c" target="_top" xlink:title="set the iir param">
<polygon fill="white" stroke="#666666" points="267.12,-260 177.62,-260 177.62,-240 267.12,-240 267.12,-260"/>
<text xml:space="preserve" text-anchor="middle" x="222.38" y="-246.5" font-family="Helvetica,sans-Serif" font-size="10.00">mlx90614_set_iir</text>
</a>
</g>
</g>
<!-- Node1&#45;&gt;Node19 -->
<g id="edge18_Node000001_Node000019" class="edge">
<title>Node1&#45;&gt;Node19</title>
<g id="a_edge18_Node000001_Node000019"><a xlink:title=" ">
<path fill="none" stroke="#63b8ff" d="M61.62,-463.66C67.43,-430.13 90.34,-323.48 154,-269 157.84,-265.71 162.22,-262.99 166.85,-260.74"/>
<polygon fill="#63b8ff" stroke="#63b8ff" points="167.93,-264.08 175.89,-257.09 165.31,-257.59 167.93,-264.08"/>
</a>
</g>
</g>
<!-- Node20 -->
<g id="Node000020" class="node">
<title>Node20</title>
<g id="a_Node000020"><a xlink:href="group__mlx90614__advance__driver.html#ga70b27ef66a0d3cbb6a812e557f34e69a" target="_top" xlink:title="set the ir sensor mode">
<polygon fill="white" stroke="#666666" points="283.25,-222 161.5,-222 161.5,-202 283.25,-202 283.25,-222"/>
<text xml:space="preserve" text-anchor="middle" x="222.38" y="-208.5" font-family="Helvetica,sans-Serif" font-size="10.00">mlx90614_set_ir_sensor</text>
</a>
</g>
</g>
<!-- Node1&#45;&gt;Node20 -->
<g id="edge19_Node000001_Node000020" class="edge">
<title>Node1&#45;&gt;Node20</title>
<g id="a_edge19_Node000001_Node000020"><a xlink:title=" ">
<path fill="none" stroke="#63b8ff" d="M60.8,-463.66C64.26,-426.32 81.23,-297.21 154,-231 155.06,-230.03 156.17,-229.12 157.32,-228.25"/>
<polygon fill="#63b8ff" stroke="#63b8ff" points="158.79,-231.45 165.47,-223.23 155.12,-225.49 158.79,-231.45"/>
</a>
</g>
</g>
<!-- Node21 -->
<g id="Node000021" class="node">
<title>Node21</title>
<g id="a_Node000021"><a xlink:href="group__mlx90614__advance__driver.html#ga9f9dee5e3524ede033c08ac1186469e9" target="_top" xlink:title="set the ks param">
<polygon fill="white" stroke="#666666" points="268.62,-184 176.12,-184 176.12,-164 268.62,-164 268.62,-184"/>
<text xml:space="preserve" text-anchor="middle" x="222.38" y="-170.5" font-family="Helvetica,sans-Serif" font-size="10.00">mlx90614_set_ks</text>
</a>
</g>
</g>
<!-- Node1&#45;&gt;Node21 -->
<g id="edge20_Node000001_Node000021" class="edge">
<title>Node1&#45;&gt;Node21</title>
<g id="a_edge20_Node000001_Node000021"><a xlink:title=" ">
<path fill="none" stroke="#63b8ff" d="M60.19,-463.52C61.54,-422.49 72.08,-271.08 154,-193 157.41,-189.75 161.34,-187.04 165.55,-184.79"/>
<polygon fill="#63b8ff" stroke="#63b8ff" points="166.61,-188.15 174.37,-180.95 163.81,-181.74 166.61,-188.15"/>
</a>
</g>
</g>
<!-- Node22 -->
<g id="Node000022" class="node">
<title>Node22</title>
<g id="a_Node000022"><a xlink:href="group__mlx90614__advance__driver.html#gab44fd0e10662daf6ee769674b9edf8f5" target="_top" xlink:title="set the kt2 param">
<polygon fill="white" stroke="#666666" points="270.12,-146 174.62,-146 174.62,-126 270.12,-126 270.12,-146"/>
<text xml:space="preserve" text-anchor="middle" x="222.38" y="-132.5" font-family="Helvetica,sans-Serif" font-size="10.00">mlx90614_set_kt2</text>
</a>
</g>
</g>
<!-- Node1&#45;&gt;Node22 -->
<g id="edge21_Node000001_Node000022" class="edge">
<title>Node1&#45;&gt;Node22</title>
<g id="a_edge21_Node000001_Node000022"><a xlink:title=" ">
<path fill="none" stroke="#63b8ff" d="M59.71,-463.68C59.08,-419.61 62.63,-245.3 154,-155 156.98,-152.05 160.39,-149.55 164.05,-147.43"/>
<polygon fill="#63b8ff" stroke="#63b8ff" points="165.27,-150.73 172.84,-143.32 162.3,-144.39 165.27,-150.73"/>
</a>
</g>
</g>
<!-- Node23 -->
<g id="Node000023" class="node">
<title>Node23</title>
<g id="a_Node000023"><a xlink:href="group__mlx90614__advance__driver.html#ga49511c69b4101f5f13882e75f28bdd65" target="_top" xlink:title="set the mode">
<polygon fill="white" stroke="#666666" points="275.38,-108 169.38,-108 169.38,-88 275.38,-88 275.38,-108"/>
<text xml:space="preserve" text-anchor="middle" x="222.38" y="-94.5" font-family="Helvetica,sans-Serif" font-size="10.00">mlx90614_set_mode</text>
</a>
</g>
</g>
<!-- Node1&#45;&gt;Node23 -->
<g id="edge22_Node000001_Node000023" class="edge">
<title>Node1&#45;&gt;Node23</title>
<g id="a_edge22_Node000001_Node000023"><a xlink:title=" ">
<path fill="none" stroke="#63b8ff" d="M61.34,-463.64C68.39,-410.51 102.9,-169 154,-117 155.6,-115.37 157.32,-113.89 159.15,-112.52"/>
<polygon fill="#63b8ff" stroke="#63b8ff" points="160.86,-115.57 167.68,-107.46 157.29,-109.55 160.86,-115.57"/>
</a>
</g>
</g>
<!-- Node24 -->
<g id="Node000024" class="node">
<title>Node24</title>
<g id="a_Node000024"><a xlink:href="group__mlx90614__advance__driver.html#ga39c5ee2bc9a1c6362a9207a2942728af" target="_top" xlink:title="enable or disable the repeat sensor test">
<polygon fill="white" stroke="#666666" points="276.88,-70 167.88,-70 167.88,-38 276.88,-38 276.88,-70"/>
<text xml:space="preserve" text-anchor="start" x="175.88" y="-56.5" font-family="Helvetica,sans-Serif" font-size="10.00">mlx90614_set_repeat</text>
<text xml:space="preserve" text-anchor="middle" x="222.38" y="-44.5" font-family="Helvetica,sans-Serif" font-size="10.00">_sensor_test</text>
</a>
</g>
</g>
<!-- Node1&#45;&gt;Node24 -->
<g id="edge23_Node000001_Node000024" class="edge">
<title>Node1&#45;&gt;Node24</title>
<g id="a_edge23_Node000001_Node000024"><a xlink:title=" ">
<path fill="none" stroke="#63b8ff" d="M61.13,-463.76C67.5,-407.82 100.5,-139.44 154,-79 155.31,-77.52 156.71,-76.13 158.19,-74.82"/>
<polygon fill="#63b8ff" stroke="#63b8ff" points="160.11,-77.75 166.19,-69.08 156.03,-72.07 160.11,-77.75"/>
</a>
</g>
</g>
<!-- Node25 -->
<g id="Node000025" class="node">
<title>Node25</title>
<g id="a_Node000025"><a xlink:href="group__mlx90614__advance__driver.html#gad7e44b263b754640a675b4ca9b89fa6a" target="_top" xlink:title="enable or disable the sensor test">
<polygon fill="white" stroke="#666666" points="288.88,-20 155.88,-20 155.88,0 288.88,0 288.88,-20"/>
<text xml:space="preserve" text-anchor="middle" x="222.38" y="-6.5" font-family="Helvetica,sans-Serif" font-size="10.00">mlx90614_set_sensor_test</text>
</a>
</g>
</g>
<!-- Node1&#45;&gt;Node25 -->
<g id="edge24_Node000001_Node000025" class="edge">
<title>Node1&#45;&gt;Node25</title>
<g id="a_edge24_Node000001_Node000025"><a xlink:title=" ">
<path fill="none" stroke="#63b8ff" d="M60.76,-463.61C65.41,-403 91.83,-95.46 154,-29 154.61,-28.35 155.23,-27.72 155.88,-27.12"/>
<polygon fill="#63b8ff" stroke="#63b8ff" points="157.94,-29.95 163.97,-21.24 153.82,-24.29 157.94,-29.95"/>
</a>
</g>
</g>
</g>
</svg>
