<?xml version="1.0" encoding="UTF-8" standalone="no"?>
<!DOCTYPE svg PUBLIC "-//W3C//DTD SVG 1.1//EN"
 "http://www.w3.org/Graphics/SVG/1.1/DTD/svg11.dtd">
<!-- Generated by graphviz version 13.1.0 (20250701.0955)
 -->
<!-- Title: mlx90614_advance_read Pages: 1 -->
<svg width="290pt" height="66pt"
 viewBox="0.00 0.00 290.00 66.00" xmlns="http://www.w3.org/2000/svg" xmlns:xlink="http://www.w3.org/1999/xlink">
<g id="graph0" class="graph" transform="scale(1 1) rotate(0) translate(4 62)">
<title>mlx90614_advance_read</title>
<!-- Node1 -->
<g id="Node000001" class="node">
<title>Node1</title>
<g id="a_Node000001"><a xlink:title="advance example read">
<polygon fill="#999999" stroke="#666666" points="124,-39 0,-39 0,-19 124,-19 124,-39"/>
<text xml:space="preserve" text-anchor="middle" x="62" y="-25.5" font-family="Helvetica,sans-Serif" font-size="10.00">mlx90614_advance_read</text>
</a>
</g>
</g>
<!-- Node2 -->
<g id="Node000002" class="node">
<title>Node2</title>
<g id="a_Node000002"><a xlink:href="group__mlx90614__basic__driver.html#gabb7bd4100d5919c6f92cafde251bc490" target="_top" xlink:title="read the ambient">
<polygon fill="white" stroke="#666666" points="281.75,-58 160,-58 160,-38 281.75,-38 281.75,-58"/>
<text xml:space="preserve" text-anchor="middle" x="220.88" y="-44.5" font-family="Helvetica,sans-Serif" font-size="10.00">mlx90614_read_ambient</text>
</a>
</g>
</g>
<!-- Node1&#45;&gt;Node2 -->
<g id="edge1_Node000001_Node000002" class="edge">
<title>Node1&#45;&gt;Node2</title>
<g id="a_edge1_Node000001_Node000002"><a xlink:title=" ">
<path fill="none" stroke="#63b8ff" d="M124.1,-36.4C132.05,-37.36 140.26,-38.36 148.36,-39.34"/>
<polygon fill="#63b8ff" stroke="#63b8ff" points="147.86,-42.8 158.21,-40.53 148.7,-35.85 147.86,-42.8"/>
</a>
</g>
</g>
<!-- Node3 -->
<g id="Node000003" class="node">
<title>Node3</title>
<g id="a_Node000003"><a xlink:href="group__mlx90614__basic__driver.html#ga4dfa852dfddcacf00289c8e91d1bc359" target="_top" xlink:title="read the object1">
<polygon fill="white" stroke="#666666" points="280.25,-20 161.5,-20 161.5,0 280.25,0 280.25,-20"/>
<text xml:space="preserve" text-anchor="middle" x="220.88" y="-6.5" font-family="Helvetica,sans-Serif" font-size="10.00">mlx90614_read_object1</text>
</a>
</g>
</g>
<!-- Node1&#45;&gt;Node3 -->
<g id="edge2_Node000001_Node000003" class="edge">
<title>Node1&#45;&gt;Node3</title>
<g id="a_edge2_Node000001_Node000003"><a xlink:title=" ">
<path fill="none" stroke="#63b8ff" d="M124.1,-21.6C132.6,-20.57 141.38,-19.51 150.01,-18.46"/>
<polygon fill="#63b8ff" stroke="#63b8ff" points="150.25,-21.96 159.75,-17.28 149.4,-15.01 150.25,-21.96"/>
</a>
</g>
</g>
</g>
</svg>
