<?xml version="1.0" encoding="UTF-8" standalone="no"?>
<!DOCTYPE svg PUBLIC "-//W3C//DTD SVG 1.1//EN"
 "http://www.w3.org/Graphics/SVG/1.1/DTD/svg11.dtd">
<!-- Generated by graphviz version 13.1.0 (20250701.0955)
 -->
<!-- Title: mlx90614 driver function Pages: 1 -->
<svg width="291pt" height="340pt"
 viewBox="0.00 0.00 291.00 340.00" xmlns="http://www.w3.org/2000/svg" xmlns:xlink="http://www.w3.org/1999/xlink">
<g id="graph0" class="graph" transform="scale(1 1) rotate(0) translate(4 336)">
<title>mlx90614 driver function</title>
<!-- Node4 -->
<g id="Node000004" class="node">
<title>Node4</title>
<g id="a_Node000004"><a xlink:href="group__mlx90614__advance__driver.html" target="_top" xlink:title="mlx90614 advance driver modules">
<polygon fill="white" stroke="#666666" points="283.25,-332 158.5,-332 158.5,-300 283.25,-300 283.25,-332"/>
<text xml:space="preserve" text-anchor="start" x="166.5" y="-318.5" font-family="Helvetica,sans-Serif" font-size="10.00">mlx90614 advance driver</text>
<text xml:space="preserve" text-anchor="middle" x="220.88" y="-306.5" font-family="Helvetica,sans-Serif" font-size="10.00"> function</text>
</a>
</g>
</g>
<!-- Node3 -->
<g id="Node000003" class="node">
<title>Node3</title>
<g id="a_Node000003"><a xlink:href="group__mlx90614__basic__driver.html" target="_top" xlink:title="mlx90614 basic driver modules">
<polygon fill="white" stroke="#666666" points="276.5,-282 165.25,-282 165.25,-250 276.5,-250 276.5,-282"/>
<text xml:space="preserve" text-anchor="start" x="173.25" y="-268.5" font-family="Helvetica,sans-Serif" font-size="10.00">mlx90614 basic driver</text>
<text xml:space="preserve" text-anchor="middle" x="220.88" y="-256.5" font-family="Helvetica,sans-Serif" font-size="10.00"> function</text>
</a>
</g>
</g>
<!-- Node1 -->
<g id="Node000001" class="node">
<title>Node1</title>
<g id="a_Node000001"><a xlink:title="mlx90614 driver modules">
<polygon fill="#999999" stroke="#666666" points="122.5,-176 0,-176 0,-156 122.5,-156 122.5,-176"/>
<text xml:space="preserve" text-anchor="middle" x="61.25" y="-162.5" font-family="Helvetica,sans-Serif" font-size="10.00">mlx90614 driver function</text>
</a>
</g>
</g>
<!-- Node1&#45;&gt;Node4 -->
<g id="edge3" class="edge">
<title>Node1&#45;&gt;Node4</title>
<path fill="none" stroke="black" d="M73.16,-186.13C88.8,-213.31 120,-261.69 158.5,-291 162.71,-294.21 167.39,-297.07 172.23,-299.6"/>
<polygon fill="black" stroke="black" points="76.28,-184.55 68.34,-177.53 70.18,-187.97 76.28,-184.55"/>
</g>
<!-- Node1&#45;&gt;Node3 -->
<g id="edge2" class="edge">
<title>Node1&#45;&gt;Node3</title>
<path fill="none" stroke="black" d="M81.85,-183.91C100.52,-200.32 129.95,-224.49 158.5,-241 163.78,-244.05 169.5,-246.91 175.26,-249.53"/>
<polygon fill="black" stroke="black" points="84.28,-181.39 74.49,-177.35 79.62,-186.62 84.28,-181.39"/>
</g>
<!-- Node7 -->
<g id="Node000007" class="node">
<title>Node7</title>
<g id="a_Node000007"><a xlink:href="group__mlx90614__example__driver.html" target="_top" xlink:title="mlx90614 example driver modules">
<polygon fill="white" stroke="#666666" points="283.25,-232 158.5,-232 158.5,-200 283.25,-200 283.25,-232"/>
<text xml:space="preserve" text-anchor="start" x="166.5" y="-218.5" font-family="Helvetica,sans-Serif" font-size="10.00">mlx90614 example driver</text>
<text xml:space="preserve" text-anchor="middle" x="220.88" y="-206.5" font-family="Helvetica,sans-Serif" font-size="10.00"> function</text>
</a>
</g>
</g>
<!-- Node1&#45;&gt;Node7 -->
<g id="edge6" class="edge">
<title>Node1&#45;&gt;Node7</title>
<path fill="none" stroke="black" d="M106.14,-179.92C125.31,-186 147.94,-193.18 167.95,-199.53"/>
<polygon fill="black" stroke="black" points="107.33,-176.63 96.74,-176.94 105.21,-183.3 107.33,-176.63"/>
</g>
<!-- Node5 -->
<g id="Node000005" class="node">
<title>Node5</title>
<g id="a_Node000005"><a xlink:href="group__mlx90614__extern__driver.html" target="_top" xlink:title="mlx90614 extern driver modules">
<polygon fill="white" stroke="#666666" points="278.38,-182 163.38,-182 163.38,-150 278.38,-150 278.38,-182"/>
<text xml:space="preserve" text-anchor="start" x="171.38" y="-168.5" font-family="Helvetica,sans-Serif" font-size="10.00">mlx90614 extern driver</text>
<text xml:space="preserve" text-anchor="middle" x="220.88" y="-156.5" font-family="Helvetica,sans-Serif" font-size="10.00"> function</text>
</a>
</g>
</g>
<!-- Node1&#45;&gt;Node5 -->
<g id="edge4" class="edge">
<title>Node1&#45;&gt;Node5</title>
<path fill="none" stroke="black" d="M134.01,-166C143.7,-166 153.53,-166 162.91,-166"/>
<polygon fill="black" stroke="black" points="134.25,-162.5 124.25,-166 134.25,-169.5 134.25,-162.5"/>
</g>
<!-- Node6 -->
<g id="Node000006" class="node">
<title>Node6</title>
<g id="a_Node000006"><a xlink:href="group__mlx90614__interface__driver.html" target="_top" xlink:title="mlx90614 interface driver modules">
<polygon fill="white" stroke="#666666" points="270.12,-132 171.62,-132 171.62,-100 270.12,-100 270.12,-132"/>
<text xml:space="preserve" text-anchor="start" x="179.62" y="-118.5" font-family="Helvetica,sans-Serif" font-size="10.00">mlx90614 interface</text>
<text xml:space="preserve" text-anchor="middle" x="220.88" y="-106.5" font-family="Helvetica,sans-Serif" font-size="10.00"> driver function</text>
</a>
</g>
</g>
<!-- Node1&#45;&gt;Node6 -->
<g id="edge5" class="edge">
<title>Node1&#45;&gt;Node6</title>
<path fill="none" stroke="black" d="M106.11,-152.09C126.37,-145.66 150.5,-138.01 171.31,-131.4"/>
<polygon fill="black" stroke="black" points="105.21,-148.7 96.74,-155.06 107.33,-155.37 105.21,-148.7"/>
</g>
<!-- Node2 -->
<g id="Node000002" class="node">
<title>Node2</title>
<g id="a_Node000002"><a xlink:href="group__mlx90614__link__driver.html" target="_top" xlink:title="mlx90614 link driver modules">
<polygon fill="white" stroke="#666666" points="272.38,-82 169.38,-82 169.38,-50 272.38,-50 272.38,-82"/>
<text xml:space="preserve" text-anchor="start" x="177.38" y="-68.5" font-family="Helvetica,sans-Serif" font-size="10.00">mlx90614 link driver</text>
<text xml:space="preserve" text-anchor="middle" x="220.88" y="-56.5" font-family="Helvetica,sans-Serif" font-size="10.00"> function</text>
</a>
</g>
</g>
<!-- Node1&#45;&gt;Node2 -->
<g id="edge1" class="edge">
<title>Node1&#45;&gt;Node2</title>
<path fill="none" stroke="black" d="M81.85,-148.09C100.52,-131.68 129.95,-107.51 158.5,-91 163.78,-87.95 169.5,-85.09 175.26,-82.47"/>
<polygon fill="black" stroke="black" points="79.62,-145.38 74.49,-154.65 84.28,-150.61 79.62,-145.38"/>
</g>
<!-- Node8 -->
<g id="Node000008" class="node">
<title>Node8</title>
<g id="a_Node000008"><a xlink:href="group__mlx90614__test__driver.html" target="_top" xlink:title="mlx90614 test driver modules">
<polygon fill="white" stroke="#666666" points="273.12,-32 168.62,-32 168.62,0 273.12,0 273.12,-32"/>
<text xml:space="preserve" text-anchor="start" x="176.62" y="-18.5" font-family="Helvetica,sans-Serif" font-size="10.00">mlx90614 test driver</text>
<text xml:space="preserve" text-anchor="middle" x="220.88" y="-6.5" font-family="Helvetica,sans-Serif" font-size="10.00"> function</text>
</a>
</g>
</g>
<!-- Node1&#45;&gt;Node8 -->
<g id="edge7" class="edge">
<title>Node1&#45;&gt;Node8</title>
<path fill="none" stroke="black" d="M73.16,-145.87C88.8,-118.69 120,-70.31 158.5,-41 162.71,-37.79 167.39,-34.93 172.23,-32.4"/>
<polygon fill="black" stroke="black" points="70.18,-144.03 68.34,-154.47 76.28,-147.45 70.18,-144.03"/>
</g>
</g>
</svg>
