<?xml version="1.0" encoding="UTF-8" standalone="no"?>
<!DOCTYPE svg PUBLIC "-//W3C//DTD SVG 1.1//EN"
 "http://www.w3.org/Graphics/SVG/1.1/DTD/svg11.dtd">
<!-- Generated by graphviz version 13.1.0 (20250701.0955)
 -->
<!-- Title: mlx90614_basic_read Pages: 1 -->
<svg width="276pt" height="66pt"
 viewBox="0.00 0.00 276.00 66.00" xmlns="http://www.w3.org/2000/svg" xmlns:xlink="http://www.w3.org/1999/xlink">
<g id="graph0" class="graph" transform="scale(1 1) rotate(0) translate(4 62)">
<title>mlx90614_basic_read</title>
<!-- Node1 -->
<g id="Node000001" class="node">
<title>Node1</title>
<g id="a_Node000001"><a xlink:title="basic example read">
<polygon fill="#999999" stroke="#666666" points="110.5,-39 0,-39 0,-19 110.5,-19 110.5,-39"/>
<text xml:space="preserve" text-anchor="middle" x="55.25" y="-25.5" font-family="Helvetica,sans-Serif" font-size="10.00">mlx90614_basic_read</text>
</a>
</g>
</g>
<!-- Node2 -->
<g id="Node000002" class="node">
<title>Node2</title>
<g id="a_Node000002"><a xlink:href="group__mlx90614__basic__driver.html#gabb7bd4100d5919c6f92cafde251bc490" target="_top" xlink:title="read the ambient">
<polygon fill="white" stroke="#666666" points="268.25,-58 146.5,-58 146.5,-38 268.25,-38 268.25,-58"/>
<text xml:space="preserve" text-anchor="middle" x="207.38" y="-44.5" font-family="Helvetica,sans-Serif" font-size="10.00">mlx90614_read_ambient</text>
</a>
</g>
</g>
<!-- Node1&#45;&gt;Node2 -->
<g id="edge1_Node000001_Node000002" class="edge">
<title>Node1&#45;&gt;Node2</title>
<g id="a_edge1_Node000001_Node000002"><a xlink:title=" ">
<path fill="none" stroke="#63b8ff" d="M110.87,-35.91C118.68,-36.9 126.81,-37.93 134.88,-38.95"/>
<polygon fill="#63b8ff" stroke="#63b8ff" points="134.35,-42.41 144.71,-40.2 135.23,-35.47 134.35,-42.41"/>
</a>
</g>
</g>
<!-- Node3 -->
<g id="Node000003" class="node">
<title>Node3</title>
<g id="a_Node000003"><a xlink:href="group__mlx90614__basic__driver.html#ga4dfa852dfddcacf00289c8e91d1bc359" target="_top" xlink:title="read the object1">
<polygon fill="white" stroke="#666666" points="266.75,-20 148,-20 148,0 266.75,0 266.75,-20"/>
<text xml:space="preserve" text-anchor="middle" x="207.38" y="-6.5" font-family="Helvetica,sans-Serif" font-size="10.00">mlx90614_read_object1</text>
</a>
</g>
</g>
<!-- Node1&#45;&gt;Node3 -->
<g id="edge2_Node000001_Node000003" class="edge">
<title>Node1&#45;&gt;Node3</title>
<g id="a_edge2_Node000001_Node000003"><a xlink:title=" ">
<path fill="none" stroke="#63b8ff" d="M110.87,-22.09C119.21,-21.03 127.91,-19.93 136.52,-18.84"/>
<polygon fill="#63b8ff" stroke="#63b8ff" points="136.76,-22.34 146.24,-17.61 135.88,-15.39 136.76,-22.34"/>
</a>
</g>
</g>
</g>
</svg>
