<?xml version="1.0" encoding="UTF-8" standalone="no"?>
<!DOCTYPE svg PUBLIC "-//W3C//DTD SVG 1.1//EN"
 "http://www.w3.org/Graphics/SVG/1.1/DTD/svg11.dtd">
<!-- Generated by graphviz version 13.1.0 (20250701.0955)
 -->
<!-- Title: mlx90614_basic_init Pages: 1 -->
<svg width="285pt" height="580pt"
 viewBox="0.00 0.00 285.00 580.00" xmlns="http://www.w3.org/2000/svg" xmlns:xlink="http://www.w3.org/1999/xlink">
<g id="graph0" class="graph" transform="scale(1 1) rotate(0) translate(4 576)">
<title>mlx90614_basic_init</title>
<!-- Node1 -->
<g id="Node000001" class="node">
<title>Node1</title>
<g id="a_Node000001"><a xlink:title="basic example init">
<polygon fill="#999999" stroke="#666666" points="104.5,-302 0,-302 0,-282 104.5,-282 104.5,-302"/>
<text xml:space="preserve" text-anchor="middle" x="52.25" y="-288.5" font-family="Helvetica,sans-Serif" font-size="10.00">mlx90614_basic_init</text>
</a>
</g>
</g>
<!-- Node2 -->
<g id="Node000002" class="node">
<title>Node2</title>
<g id="a_Node000002"><a xlink:href="group__mlx90614__basic__driver.html#gace5c4919a7c0dd1b200b86b924fbc518" target="_top" xlink:title="close the chip">
<polygon fill="white" stroke="#666666" points="252.12,-572 165.62,-572 165.62,-552 252.12,-552 252.12,-572"/>
<text xml:space="preserve" text-anchor="middle" x="208.88" y="-558.5" font-family="Helvetica,sans-Serif" font-size="10.00">mlx90614_deinit</text>
</a>
</g>
</g>
<!-- Node1&#45;&gt;Node2 -->
<g id="edge1_Node000001_Node000002" class="edge">
<title>Node1&#45;&gt;Node2</title>
<g id="a_edge1_Node000001_Node000002"><a xlink:title=" ">
<path fill="none" stroke="#63b8ff" d="M53.61,-302.39C55.5,-340.51 67.29,-474.04 140.5,-543 144.7,-546.96 149.67,-550.11 154.97,-552.6"/>
<polygon fill="#63b8ff" stroke="#63b8ff" points="153.46,-555.77 164.05,-556.1 155.98,-549.24 153.46,-555.77"/>
</a>
</g>
</g>
<!-- Node3 -->
<g id="Node000003" class="node">
<title>Node3</title>
<g id="a_Node000003"><a xlink:href="group__mlx90614__advance__driver.html#ga9182bfd300ae883b1be3bf8dfa83f8b5" target="_top" xlink:title="exit from sleep mode">
<polygon fill="white" stroke="#666666" points="277.25,-534 140.5,-534 140.5,-514 277.25,-514 277.25,-534"/>
<text xml:space="preserve" text-anchor="middle" x="208.88" y="-520.5" font-family="Helvetica,sans-Serif" font-size="10.00">mlx90614_exit_sleep_mode</text>
</a>
</g>
</g>
<!-- Node1&#45;&gt;Node3 -->
<g id="edge2_Node000001_Node000003" class="edge">
<title>Node1&#45;&gt;Node3</title>
<g id="a_edge2_Node000001_Node000003"><a xlink:title=" ">
<path fill="none" stroke="#63b8ff" d="M54.31,-302.24C58.42,-336.44 76.39,-447.8 140.5,-505 141.6,-505.98 142.74,-506.91 143.92,-507.79"/>
<polygon fill="#63b8ff" stroke="#63b8ff" points="141.99,-510.71 152.37,-512.87 145.61,-504.71 141.99,-510.71"/>
</a>
</g>
</g>
<!-- Node4 -->
<g id="Node000004" class="node">
<title>Node4</title>
<g id="a_Node000004"><a xlink:href="group__mlx90614__basic__driver.html#ga92df0bcb60fde45d9c9bc6fbe54388ff" target="_top" xlink:title="initialize the chip">
<polygon fill="white" stroke="#666666" points="246.88,-496 170.88,-496 170.88,-476 246.88,-476 246.88,-496"/>
<text xml:space="preserve" text-anchor="middle" x="208.88" y="-482.5" font-family="Helvetica,sans-Serif" font-size="10.00">mlx90614_init</text>
</a>
</g>
</g>
<!-- Node1&#45;&gt;Node4 -->
<g id="edge3_Node000001_Node000004" class="edge">
<title>Node1&#45;&gt;Node4</title>
<g id="a_edge3_Node000001_Node000004"><a xlink:title=" ">
<path fill="none" stroke="#63b8ff" d="M55.28,-302.09C61.83,-332.06 85.33,-421.32 140.5,-467 146.09,-471.63 152.74,-475.13 159.65,-477.78"/>
<polygon fill="#63b8ff" stroke="#63b8ff" points="158.57,-481.11 169.16,-480.82 160.7,-474.45 158.57,-481.11"/>
</a>
</g>
</g>
<!-- Node5 -->
<g id="Node000005" class="node">
<title>Node5</title>
<g id="a_Node000005"><a xlink:href="group__mlx90614__interface__driver.html#gae131079bb0527366d0c6fa96b68e8a26" target="_top" xlink:title="interface print format data">
<polygon fill="white" stroke="#666666" points="259.25,-458 158.5,-458 158.5,-426 259.25,-426 259.25,-458"/>
<text xml:space="preserve" text-anchor="start" x="166.5" y="-444.5" font-family="Helvetica,sans-Serif" font-size="10.00">mlx90614_interface</text>
<text xml:space="preserve" text-anchor="middle" x="208.88" y="-432.5" font-family="Helvetica,sans-Serif" font-size="10.00">_debug_print</text>
</a>
</g>
</g>
<!-- Node1&#45;&gt;Node5 -->
<g id="edge4_Node000001_Node000005" class="edge">
<title>Node1&#45;&gt;Node5</title>
<g id="a_edge4_Node000001_Node000005"><a xlink:title=" ">
<path fill="none" stroke="#63b8ff" d="M57.77,-302.32C68.63,-325.96 98.42,-384.45 140.5,-417 142.91,-418.87 145.48,-420.61 148.15,-422.22"/>
<polygon fill="#63b8ff" stroke="#63b8ff" points="146.38,-425.24 156.85,-426.86 149.67,-419.06 146.38,-425.24"/>
</a>
</g>
</g>
<!-- Node6 -->
<g id="Node000006" class="node">
<title>Node6</title>
<g id="a_Node000006"><a xlink:href="group__mlx90614__interface__driver.html#ga63792ad5bfa17f8c75d671708f6eb3f8" target="_top" xlink:title="interface delay ms">
<polygon fill="white" stroke="#666666" points="259.25,-408 158.5,-408 158.5,-376 259.25,-376 259.25,-408"/>
<text xml:space="preserve" text-anchor="start" x="166.5" y="-394.5" font-family="Helvetica,sans-Serif" font-size="10.00">mlx90614_interface</text>
<text xml:space="preserve" text-anchor="middle" x="208.88" y="-382.5" font-family="Helvetica,sans-Serif" font-size="10.00">_delay_ms</text>
</a>
</g>
</g>
<!-- Node1&#45;&gt;Node6 -->
<g id="edge5_Node000001_Node000006" class="edge">
<title>Node1&#45;&gt;Node6</title>
<g id="a_edge5_Node000001_Node000006"><a xlink:title=" ">
<path fill="none" stroke="#63b8ff" d="M62.81,-302.29C77.96,-318.09 109.01,-348.44 140.5,-367 142.81,-368.36 145.21,-369.67 147.67,-370.93"/>
<polygon fill="#63b8ff" stroke="#63b8ff" points="146.09,-374.06 156.63,-375.15 149.08,-367.73 146.09,-374.06"/>
</a>
</g>
</g>
<!-- Node7 -->
<g id="Node000007" class="node">
<title>Node7</title>
<g id="a_Node000007"><a xlink:href="group__mlx90614__interface__driver.html#ga685fd159ec3fd8ae6754a826a22aa924" target="_top" xlink:title="interface iic bus deinit">
<polygon fill="white" stroke="#666666" points="259.25,-358 158.5,-358 158.5,-326 259.25,-326 259.25,-358"/>
<text xml:space="preserve" text-anchor="start" x="166.5" y="-344.5" font-family="Helvetica,sans-Serif" font-size="10.00">mlx90614_interface</text>
<text xml:space="preserve" text-anchor="middle" x="208.88" y="-332.5" font-family="Helvetica,sans-Serif" font-size="10.00">_iic_deinit</text>
</a>
</g>
</g>
<!-- Node1&#45;&gt;Node7 -->
<g id="edge6_Node000001_Node000007" class="edge">
<title>Node1&#45;&gt;Node7</title>
<g id="a_edge6_Node000001_Node000007"><a xlink:title=" ">
<path fill="none" stroke="#63b8ff" d="M85.66,-302.48C103.54,-308.26 126.31,-315.62 147.34,-322.43"/>
<polygon fill="#63b8ff" stroke="#63b8ff" points="146.11,-325.71 156.7,-325.45 148.27,-319.05 146.11,-325.71"/>
</a>
</g>
</g>
<!-- Node8 -->
<g id="Node000008" class="node">
<title>Node8</title>
<g id="a_Node000008"><a xlink:href="group__mlx90614__interface__driver.html#ga46e578cd72698bb2f8fb2b214f47a0f6" target="_top" xlink:title="interface iic bus init">
<polygon fill="white" stroke="#666666" points="259.25,-308 158.5,-308 158.5,-276 259.25,-276 259.25,-308"/>
<text xml:space="preserve" text-anchor="start" x="166.5" y="-294.5" font-family="Helvetica,sans-Serif" font-size="10.00">mlx90614_interface</text>
<text xml:space="preserve" text-anchor="middle" x="208.88" y="-282.5" font-family="Helvetica,sans-Serif" font-size="10.00">_iic_init</text>
</a>
</g>
</g>
<!-- Node1&#45;&gt;Node8 -->
<g id="edge7_Node000001_Node000008" class="edge">
<title>Node1&#45;&gt;Node8</title>
<g id="a_edge7_Node000001_Node000008"><a xlink:title=" ">
<path fill="none" stroke="#63b8ff" d="M104.74,-292C118.19,-292 132.82,-292 146.72,-292"/>
<polygon fill="#63b8ff" stroke="#63b8ff" points="146.67,-295.5 156.67,-292 146.67,-288.5 146.67,-295.5"/>
</a>
</g>
</g>
<!-- Node9 -->
<g id="Node000009" class="node">
<title>Node9</title>
<g id="a_Node000009"><a xlink:href="group__mlx90614__interface__driver.html#gadf9d35a55bfa4ac8782e468dc22df124" target="_top" xlink:title="interface iic bus read">
<polygon fill="white" stroke="#666666" points="259.25,-258 158.5,-258 158.5,-226 259.25,-226 259.25,-258"/>
<text xml:space="preserve" text-anchor="start" x="166.5" y="-244.5" font-family="Helvetica,sans-Serif" font-size="10.00">mlx90614_interface</text>
<text xml:space="preserve" text-anchor="middle" x="208.88" y="-232.5" font-family="Helvetica,sans-Serif" font-size="10.00">_iic_read</text>
</a>
</g>
</g>
<!-- Node1&#45;&gt;Node9 -->
<g id="edge8_Node000001_Node000009" class="edge">
<title>Node1&#45;&gt;Node9</title>
<g id="a_edge8_Node000001_Node000009"><a xlink:title=" ">
<path fill="none" stroke="#63b8ff" d="M85.66,-281.52C103.54,-275.74 126.31,-268.38 147.34,-261.57"/>
<polygon fill="#63b8ff" stroke="#63b8ff" points="148.27,-264.95 156.7,-258.55 146.11,-258.29 148.27,-264.95"/>
</a>
</g>
</g>
<!-- Node10 -->
<g id="Node000010" class="node">
<title>Node10</title>
<g id="a_Node000010"><a xlink:href="group__mlx90614__interface__driver.html#ga0de85f1b76b0641e601a5b773a138086" target="_top" xlink:title="interface iic bus write">
<polygon fill="white" stroke="#666666" points="259.25,-208 158.5,-208 158.5,-176 259.25,-176 259.25,-208"/>
<text xml:space="preserve" text-anchor="start" x="166.5" y="-194.5" font-family="Helvetica,sans-Serif" font-size="10.00">mlx90614_interface</text>
<text xml:space="preserve" text-anchor="middle" x="208.88" y="-182.5" font-family="Helvetica,sans-Serif" font-size="10.00">_iic_write</text>
</a>
</g>
</g>
<!-- Node1&#45;&gt;Node10 -->
<g id="edge9_Node000001_Node000010" class="edge">
<title>Node1&#45;&gt;Node10</title>
<g id="a_edge9_Node000001_Node000010"><a xlink:title=" ">
<path fill="none" stroke="#63b8ff" d="M62.81,-281.71C77.96,-265.91 109.01,-235.56 140.5,-217 142.81,-215.64 145.21,-214.33 147.67,-213.07"/>
<polygon fill="#63b8ff" stroke="#63b8ff" points="149.08,-216.27 156.63,-208.85 146.09,-209.94 149.08,-216.27"/>
</a>
</g>
</g>
<!-- Node11 -->
<g id="Node000011" class="node">
<title>Node11</title>
<g id="a_Node000011"><a xlink:href="group__mlx90614__interface__driver.html#gacec1e1f7236d20c7cb64eec32ed48bd0" target="_top" xlink:title="interface scl write">
<polygon fill="white" stroke="#666666" points="259.25,-158 158.5,-158 158.5,-126 259.25,-126 259.25,-158"/>
<text xml:space="preserve" text-anchor="start" x="166.5" y="-144.5" font-family="Helvetica,sans-Serif" font-size="10.00">mlx90614_interface</text>
<text xml:space="preserve" text-anchor="middle" x="208.88" y="-132.5" font-family="Helvetica,sans-Serif" font-size="10.00">_scl_write</text>
</a>
</g>
</g>
<!-- Node1&#45;&gt;Node11 -->
<g id="edge10_Node000001_Node000011" class="edge">
<title>Node1&#45;&gt;Node11</title>
<g id="a_edge10_Node000001_Node000011"><a xlink:title=" ">
<path fill="none" stroke="#63b8ff" d="M57.77,-281.68C68.63,-258.04 98.42,-199.55 140.5,-167 142.91,-165.13 145.48,-163.39 148.15,-161.78"/>
<polygon fill="#63b8ff" stroke="#63b8ff" points="149.67,-164.94 156.85,-157.14 146.38,-158.76 149.67,-164.94"/>
</a>
</g>
</g>
<!-- Node12 -->
<g id="Node000012" class="node">
<title>Node12</title>
<g id="a_Node000012"><a xlink:href="group__mlx90614__interface__driver.html#ga84b8e1826902be3f5cf963609dfd68b4" target="_top" xlink:title="interface sda write">
<polygon fill="white" stroke="#666666" points="259.25,-108 158.5,-108 158.5,-76 259.25,-76 259.25,-108"/>
<text xml:space="preserve" text-anchor="start" x="166.5" y="-94.5" font-family="Helvetica,sans-Serif" font-size="10.00">mlx90614_interface</text>
<text xml:space="preserve" text-anchor="middle" x="208.88" y="-82.5" font-family="Helvetica,sans-Serif" font-size="10.00">_sda_write</text>
</a>
</g>
</g>
<!-- Node1&#45;&gt;Node12 -->
<g id="edge11_Node000001_Node000012" class="edge">
<title>Node1&#45;&gt;Node12</title>
<g id="a_edge11_Node000001_Node000012"><a xlink:title=" ">
<path fill="none" stroke="#63b8ff" d="M55.55,-281.69C62.73,-251.88 87.46,-164.64 140.5,-117 142.94,-114.81 145.58,-112.81 148.37,-110.98"/>
<polygon fill="#63b8ff" stroke="#63b8ff" points="149.97,-114.09 156.96,-106.13 146.53,-107.99 149.97,-114.09"/>
</a>
</g>
</g>
<!-- Node13 -->
<g id="Node000013" class="node">
<title>Node13</title>
<g id="a_Node000013"><a xlink:href="group__mlx90614__advance__driver.html#gaa708be9b3b2847e7056297bd7a21e8c2" target="_top" xlink:title="change pwm mode to smbus mode">
<polygon fill="white" stroke="#666666" points="275,-58 142.75,-58 142.75,-38 275,-38 275,-58"/>
<text xml:space="preserve" text-anchor="middle" x="208.88" y="-44.5" font-family="Helvetica,sans-Serif" font-size="10.00">mlx90614_pwm_to_smbus</text>
</a>
</g>
</g>
<!-- Node1&#45;&gt;Node13 -->
<g id="edge12_Node000001_Node000013" class="edge">
<title>Node1&#45;&gt;Node13</title>
<g id="a_edge12_Node000001_Node000013"><a xlink:title=" ">
<path fill="none" stroke="#63b8ff" d="M54.07,-281.7C57.46,-246.21 73.54,-127.88 140.5,-67 141.56,-66.03 142.67,-65.12 143.82,-64.25"/>
<polygon fill="#63b8ff" stroke="#63b8ff" points="145.29,-67.45 151.97,-59.23 141.62,-61.49 145.29,-67.45"/>
</a>
</g>
</g>
<!-- Node14 -->
<g id="Node000014" class="node">
<title>Node14</title>
<g id="a_Node000014"><a xlink:href="group__mlx90614__basic__driver.html#gab60b78a1d3c8efe38156b57136b1a87c" target="_top" xlink:title="set the address">
<polygon fill="white" stroke="#666666" points="259.25,-20 158.5,-20 158.5,0 259.25,0 259.25,-20"/>
<text xml:space="preserve" text-anchor="middle" x="208.88" y="-6.5" font-family="Helvetica,sans-Serif" font-size="10.00">mlx90614_set_addr</text>
</a>
</g>
</g>
<!-- Node1&#45;&gt;Node14 -->
<g id="edge13_Node000001_Node000014" class="edge">
<title>Node1&#45;&gt;Node14</title>
<g id="a_edge13_Node000001_Node000014"><a xlink:title=" ">
<path fill="none" stroke="#63b8ff" d="M53.42,-281.67C54.63,-242.51 64.33,-101.78 140.5,-29 142.77,-26.83 145.27,-24.91 147.92,-23.2"/>
<polygon fill="#63b8ff" stroke="#63b8ff" points="149.5,-26.32 156.77,-18.61 146.28,-20.11 149.5,-26.32"/>
</a>
</g>
</g>
</g>
</svg>
